<?xml version="1.0" encoding="utf-8"?>
<!-- Generator: Adobe Illustrator 26.0.1, SVG Export Plug-In . SVG Version: 6.00 Build 0)  -->
<svg version="1.1" id="Layer_1" xmlns="http://www.w3.org/2000/svg" xmlns:xlink="http://www.w3.org/1999/xlink" x="0px" y="0px"
	 viewBox="0 0 165 50" style="enable-background:new 0 0 165 50;" xml:space="preserve">
<style type="text/css">
	.st0{clip-path:url(#SVGID_00000047772298803406347480000006387491488636349371_);}
	.st1{fill:#E53E51;}
	.st2{fill:#FFFFFF;}
</style>
<g>
	<defs>
		<rect id="SVGID_1_" x="50.6" width="164.7" height="50"/>
	</defs>
	<clipPath id="SVGID_00000149373702536862427340000003980514995943039878_">
		<use xlink:href="#SVGID_1_"  style="overflow:visible;"/>
	</clipPath>
	
		<g id="Layer_1_00000008845201244643820730000017279718309230368136_" style="clip-path:url(#SVGID_00000149373702536862427340000003980514995943039878_);">
		<path id="Vector_23" class="st1" d="M74.9,50c-13.4,0-24.3-10.9-24.3-24.3V0h48.7v25.7C99.2,39.1,88.3,50,74.9,50z M51.4,0.8v24.8
			c0,13,10.5,23.5,23.5,23.5s23.5-10.5,23.5-23.5V0.8H51.4z"/>
		<path id="Vector_24" class="st1" d="M54.3,3.7h41.2v21.9c0,11.4-9.2,20.6-20.6,20.6c-11.4,0-20.6-9.2-20.6-20.6V3.7z"/>
		<path id="Vector_25" class="st2" d="M72,25.3c-1.9,0-3.7-0.6-5.2-1.6c-1.5-1.1-2.7-2.5-3.3-4.3l-3.3-8.8l0.9-0.3
			c2.3-0.9,4.8-0.8,7,0.2c2.2,1,3.9,2.8,4.8,5.1l3.3,8.8l-0.9,0.3C74.2,25.1,73.1,25.3,72,25.3z M62.5,11.7l2.7,7
			c0.6,1.7,1.8,3,3.4,3.9c1.6,0.8,3.4,1.1,5.1,0.6l-2.7-7c-0.6-1.7-1.8-3-3.4-3.9C66,11.6,64.2,11.3,62.5,11.7L62.5,11.7z"/>
		<path id="Vector_26" class="st2" d="M77.8,25.3c-1.1,0-2.2-0.2-3.2-0.6l-0.9-0.3l3.3-8.8c0.9-2.3,2.6-4.1,4.8-5.1
			c2.2-1,4.7-1.1,7-0.2l0.9,0.3l-3.3,8.8c-0.7,1.7-1.8,3.2-3.3,4.3C81.4,24.8,79.6,25.3,77.8,25.3z M76.1,23.3
			c1.7,0.4,3.5,0.2,5.1-0.6c1.6-0.8,2.8-2.2,3.4-3.9l2.7-7c-1.7-0.4-3.5-0.2-5.1,0.6c-1.6,0.8-2.8,2.2-3.4,3.9L76.1,23.3z"/>
		<path id="Vector_27" class="st2" d="M72,38.7c-1.9,0-3.7-0.6-5.2-1.6c-1.5-1.1-2.7-2.5-3.3-4.3l-3.3-8.8l0.9-0.3
			c2.3-0.9,4.8-0.8,7,0.2c2.2,1,3.9,2.8,4.8,5.1l3.3,8.8l-0.9,0.3C74.2,38.4,73.1,38.6,72,38.7z M62.5,25.1l2.7,7
			c0.6,1.7,1.8,3,3.4,3.9c1.6,0.8,3.4,1.1,5.1,0.6l-2.7-7c-0.6-1.7-1.8-3-3.4-3.9C66,24.9,64.2,24.6,62.5,25.1L62.5,25.1z"/>
		<path id="Vector_28" class="st2" d="M77.8,38.7c-1.1,0-2.2-0.2-3.2-0.6l-0.9-0.3l3.3-8.8c0.9-2.3,2.6-4.1,4.8-5.1
			c2.2-1,4.7-1.1,7-0.2l0.9,0.3l-3.3,8.8C85.7,34.5,84.5,36,83,37S79.6,38.6,77.8,38.7z M76.1,36.6c1.7,0.4,3.5,0.2,5.1-0.6
			c1.6-0.8,2.8-2.2,3.4-3.9l2.7-7c-1.7-0.4-3.5-0.2-5.1,0.6c-1.6,0.8-2.8,2.2-3.4,3.9L76.1,36.6z"/>
	</g>
</g>
</svg>
