<svg width="165" height="50" viewBox="0 0 165 50" fill="none" xmlns="http://www.w3.org/2000/svg">
<g id="Layer_1" clip-path="url(#clip0_134_91)">
<path id="Vector" d="M67.1633 21.8595L62.4286 10.0214H65.4217L67.705 16.0592C67.8402 16.4084 67.9557 16.7126 68.0515 16.9718C68.1473 17.2309 68.2318 17.4734 68.305 17.6994C68.3782 17.9247 68.4458 18.1528 68.5078 18.3838L68.719 19.1706H68.1951C68.2853 18.7875 68.3754 18.4464 68.4655 18.1472C68.5557 17.848 68.657 17.5382 68.7697 17.2177C68.8824 16.896 69.0235 16.5098 69.1931 16.0592L71.392 10.0214H74.3343L69.5696 21.8595H67.1633Z" fill="#592C82"/>
<path id="Vector_2" d="M77.226 22.0116C76.5061 22.0232 75.8 21.8138 75.2028 21.4116C74.5963 20.9918 74.1106 20.4201 73.7945 19.7536C73.4359 19.0076 73.2565 18.1881 73.2706 17.3604C73.2706 16.4479 73.4452 15.642 73.7945 14.9429C74.1176 14.2741 74.6143 13.7044 75.2328 13.2933C75.8506 12.8902 76.5749 12.6813 77.3124 12.6934C77.712 12.6893 78.1094 12.7528 78.4879 12.8811C78.8286 12.9971 79.1463 13.1719 79.4267 13.3975C79.6947 13.6147 79.9283 13.871 80.1196 14.158C80.3091 14.4407 80.452 14.752 80.543 15.08L79.9797 15.0124V12.8793H82.6686V21.8595H79.9309V19.6945L80.5402 19.6776C80.4462 19.9996 80.2972 20.3029 80.0999 20.5742C79.893 20.8602 79.6421 21.1115 79.3563 21.3187C79.0563 21.5356 78.7257 21.7065 78.3752 21.8257C78.005 21.9506 77.6167 22.0134 77.226 22.0116ZM77.9696 19.7283C78.3504 19.7376 78.726 19.6379 79.0521 19.441C79.363 19.2418 79.6096 18.9568 79.7619 18.6204C79.9292 18.2216 80.0154 17.7934 80.0154 17.3609C80.0154 16.9284 79.9292 16.5003 79.7619 16.1014C79.6396 15.8501 79.466 15.6271 79.2523 15.4468C79.0387 15.2666 78.7896 15.133 78.5212 15.0547C78.2529 14.9765 77.9711 14.9553 77.694 14.9924C77.4169 15.0296 77.1507 15.1243 76.9125 15.2705C76.6057 15.476 76.3624 15.7632 76.2102 16.0996C76.0429 16.4984 75.9567 16.9265 75.9567 17.359C75.9567 17.7915 76.0429 18.2197 76.2102 18.6185C76.3586 18.9581 76.6056 19.2453 76.9191 19.4428C77.2327 19.6403 77.5983 19.7391 77.9687 19.7264L77.9696 19.7283Z" fill="#592C82"/>
<path id="Vector_3" d="M84.3971 21.8595V9.34546H87.1029V21.8595H84.3971Z" fill="#592C82"/>
<path id="Vector_4" d="M88.8613 21.8595V9.34546H91.5671V21.8595H88.8613Z" fill="#592C82"/>
<path id="Vector_5" d="M97.4191 22.0285C96.4264 22.0285 95.5639 21.8286 94.8316 21.4286C94.1214 21.0501 93.5302 20.482 93.1238 19.7875C92.7099 19.0649 92.4994 18.2438 92.5145 17.4112C92.5069 16.7643 92.6216 16.1219 92.8524 15.5175C93.0656 14.9611 93.3869 14.4524 93.7979 14.021C94.206 13.5966 94.6986 13.2624 95.2437 13.0399C95.8264 12.8045 96.4499 12.6867 97.0783 12.6934C97.6733 12.6862 98.2636 12.8012 98.8123 13.0314C99.3267 13.2497 99.7902 13.5723 100.174 13.9787C100.562 14.393 100.861 14.8821 101.053 15.4161C101.26 15.9963 101.352 16.6111 101.324 17.2263L101.307 17.9529H94.1528L93.7641 16.4301H99.1081L98.8208 16.7512V16.4132C98.8022 16.1439 98.7117 15.8846 98.5589 15.6621C98.4053 15.4423 98.1986 15.265 97.958 15.1467C97.6949 15.0187 97.4055 14.9544 97.113 14.9589C96.7211 14.9467 96.3327 15.037 95.9864 15.2209C95.6777 15.3936 95.4318 15.6599 95.2841 15.9813C95.116 16.3677 95.0352 16.7863 95.0475 17.2075C95.0363 17.659 95.1442 18.1055 95.3602 18.5022C95.5723 18.8717 95.8906 19.169 96.2737 19.3556C96.7192 19.5687 97.2089 19.6729 97.7026 19.6598C98.0511 19.6654 98.3978 19.6081 98.726 19.4908C99.0764 19.3476 99.4041 19.154 99.6986 18.9162L100.966 20.7085C100.629 21.0045 100.254 21.2549 99.8507 21.453C99.4648 21.6408 99.0592 21.7853 98.6415 21.884C98.2408 21.9784 97.8307 22.0269 97.4191 22.0285Z" fill="#592C82"/>
<path id="Vector_6" d="M103.338 25.7511L105.384 20.9309L105.418 22.3176L101.088 12.8793H104.15L106.043 17.3952C106.145 17.6211 106.241 17.8637 106.331 18.1228C106.417 18.3655 106.485 18.6144 106.534 18.8673L106.158 19.087C106.226 18.918 106.302 18.7065 106.386 18.4524C106.471 18.1982 106.565 17.925 106.668 17.6327L108.325 12.8802H111.402L107.58 21.8604L106.027 25.7511H103.338Z" fill="#592C82"/>
<path id="Vector_7" d="M117.037 21.8595V10.0214H122.146C122.842 10.0089 123.528 10.184 124.132 10.5284C124.72 10.8698 125.206 11.3618 125.54 11.9536C125.874 12.5454 126.045 13.2156 126.034 13.8951C126.046 14.6137 125.868 15.3227 125.517 15.9503C125.187 16.5388 124.709 17.0312 124.131 17.3792C123.53 17.734 122.842 17.9154 122.144 17.9031H119.911V21.8604L117.037 21.8595ZM119.861 15.3813H121.738C121.977 15.3833 122.212 15.3183 122.415 15.1936C122.619 15.0686 122.788 14.8938 122.905 14.6856C123.033 14.4589 123.098 14.2022 123.093 13.9421C123.101 13.6813 123.036 13.4235 122.905 13.1975C122.786 13.0009 122.617 12.839 122.415 12.7281C122.208 12.6145 121.975 12.5563 121.738 12.5591H119.861V15.3813Z" fill="#592C82"/>
<path id="Vector_8" d="M130.244 22.0454C129.579 22.0454 129.013 21.9017 128.545 21.6144C128.069 21.3178 127.692 20.8856 127.463 20.3733C127.212 19.8325 127.085 19.184 127.081 18.4279V12.8793H129.804V18.0524C129.797 18.3708 129.854 18.6874 129.973 18.9828C130.076 19.2304 130.253 19.44 130.48 19.5827C130.725 19.7292 131.007 19.8025 131.292 19.794C131.515 19.7967 131.736 19.7565 131.943 19.6757C132.133 19.6017 132.305 19.4896 132.45 19.3462C132.591 19.2059 132.703 19.0394 132.78 18.8561C132.861 18.6603 132.901 18.4501 132.899 18.2383V12.8793H135.621V21.8595H133.068L132.948 20.0156L133.455 19.8128C133.321 20.2403 133.09 20.631 132.779 20.9544C132.458 21.2914 132.073 21.5617 131.646 21.7496C131.205 21.947 130.727 22.0478 130.244 22.0454Z" fill="#592C82"/>
<path id="Vector_9" d="M142.759 22.0454C141.99 22.0473 141.236 21.8304 140.586 21.4202C140.301 21.2415 140.05 21.0154 139.842 20.7517C139.656 20.52 139.52 20.252 139.444 19.9649L140.036 19.7621L139.884 21.8426H137.361V9.34546H140.084V15.0274L139.526 14.8247C139.596 14.5268 139.729 14.2472 139.915 14.0041C140.118 13.7409 140.363 13.5137 140.641 13.3319C140.939 13.1307 141.264 12.9726 141.606 12.8624C141.955 12.7496 142.32 12.6926 142.687 12.6934C143.422 12.6808 144.144 12.8899 144.759 13.2934C145.377 13.7099 145.872 14.2848 146.191 14.958C146.551 15.7091 146.731 16.5341 146.716 17.3671C146.716 18.2803 146.544 19.0893 146.199 19.794C145.887 20.4628 145.401 21.0352 144.791 21.4511C144.19 21.8508 143.481 22.0581 142.759 22.0454ZM142.05 19.7621C142.427 19.7702 142.799 19.6642 143.115 19.4579C143.423 19.2504 143.666 18.9601 143.817 18.6205C144.144 17.8157 144.144 16.9147 143.817 16.11C143.671 15.7697 143.427 15.4809 143.115 15.2809C142.795 15.0848 142.425 14.9851 142.05 14.9936C141.669 14.9837 141.293 15.0834 140.967 15.2809C140.655 15.482 140.407 15.7702 140.256 16.11C140.089 16.5073 140.003 16.9341 140.003 17.3652C140.003 17.7963 140.089 18.2231 140.256 18.6205C140.412 18.9598 140.658 19.2497 140.967 19.4579C141.289 19.6659 141.667 19.7719 142.05 19.7621Z" fill="#592C82"/>
<path id="Vector_10" d="M147.832 21.8595V9.34546H150.538V21.8595H147.832Z" fill="#592C82"/>
<path id="Vector_11" d="M153.785 11.1048C153.277 11.1048 152.88 10.9834 152.593 10.7406C152.306 10.4977 152.163 10.1513 152.161 9.70124C152.156 9.51265 152.193 9.32528 152.269 9.15268C152.345 8.98008 152.459 8.82656 152.602 8.70323C152.895 8.4441 153.289 8.31422 153.785 8.3136C154.292 8.3136 154.687 8.43502 154.969 8.67788C155.252 8.92073 155.393 9.26185 155.392 9.70124C155.398 9.89146 155.363 10.0808 155.289 10.256C155.214 10.4311 155.102 10.5879 154.961 10.7152C154.673 10.9756 154.281 11.1055 153.785 11.1048ZM152.433 21.8604V12.8793H155.138V21.8595L152.433 21.8604Z" fill="#592C82"/>
<path id="Vector_12" d="M160.939 22.0286C160.12 22.0416 159.313 21.8313 158.605 21.4202C157.924 21.0188 157.363 20.4437 156.978 19.7537C156.583 19.0173 156.377 18.1949 156.377 17.3596C156.377 16.5242 156.583 15.7018 156.978 14.9655C157.364 14.2749 157.927 13.6997 158.609 13.299C159.318 12.8879 160.125 12.6776 160.943 12.6906C161.7 12.6822 162.451 12.8259 163.151 13.1131C163.776 13.3628 164.326 13.7708 164.747 14.297L163.278 16.0593C163.111 15.8703 162.924 15.7 162.721 15.5513C162.504 15.3909 162.264 15.2642 162.01 15.1758C161.749 15.0855 161.475 15.0398 161.199 15.0406C160.801 15.0321 160.408 15.1345 160.066 15.3363C159.739 15.5323 159.475 15.8168 159.304 16.1569C159.119 16.5292 159.026 16.9409 159.034 17.3568C159.029 17.7632 159.126 18.1643 159.315 18.5238C159.493 18.8645 159.759 19.1509 160.085 19.3528C160.421 19.5582 160.808 19.6637 161.202 19.657C161.476 19.6595 161.749 19.6225 162.013 19.5471C162.258 19.4751 162.489 19.3638 162.698 19.2176C162.915 19.0634 163.111 18.8812 163.281 18.6759L164.735 20.4522C164.352 20.9367 163.82 21.32 163.139 21.6023C162.441 21.8891 161.693 22.034 160.939 22.0286Z" fill="#592C82"/>
<path id="Vector_13" d="M62.4286 38.0164V29.1376H63.7984V38.0164H62.4286ZM63.0248 34.2487V32.9343H68.8336V34.2487H63.0248ZM68.2252 38.0164V29.1376H69.595V38.0164H68.2252Z" fill="#592C82"/>
<path id="Vector_14" d="M72.0933 29.8821C71.8584 29.8972 71.6268 29.8204 71.4473 29.668C71.2991 29.5021 71.2177 29.287 71.2189 29.0645C71.2201 28.842 71.3038 28.6278 71.4539 28.4635C71.5402 28.3848 71.6412 28.3242 71.7511 28.285C71.8611 28.2458 71.9777 28.2289 72.0942 28.2353C72.3759 28.2353 72.5881 28.3067 72.7411 28.4503C72.8892 28.6165 72.9705 28.8317 72.9693 29.0543C72.9681 29.277 72.8845 29.4913 72.7345 29.6558C72.648 29.7342 72.5468 29.7946 72.4367 29.8335C72.3266 29.8723 72.2098 29.8889 72.0933 29.8821ZM71.4596 38.0126V31.358H72.7674V38.0173L71.4596 38.0126Z" fill="#592C82"/>
<path id="Vector_15" d="M77.2429 40.9343C76.7631 40.9331 76.2862 40.8584 75.829 40.7127C75.4174 40.5942 75.0321 40.3983 74.6939 40.1353L75.1756 39.1204C75.3603 39.2564 75.5604 39.3701 75.7717 39.4593C76.0051 39.5577 76.2471 39.6341 76.4947 39.6875C76.7413 39.7422 76.9931 39.7699 77.2458 39.7701C77.647 39.7832 78.046 39.7052 78.4128 39.542C78.7153 39.3994 78.9643 39.1638 79.1235 38.8697C79.2944 38.5278 79.377 38.1486 79.3638 37.7666V36.4813L79.5037 36.5752C79.4477 36.8623 79.3036 37.1248 79.0915 37.3263C78.8435 37.5785 78.5481 37.7792 78.2222 37.9168C77.8867 38.0662 77.5238 38.1439 77.1566 38.1449C76.5623 38.155 75.977 37.9989 75.4666 37.6943C74.9731 37.3959 74.568 36.9714 74.293 36.4644C74.0103 35.9124 73.8623 35.3014 73.8614 34.6812C73.8604 34.0611 74.0064 33.4495 74.2874 32.8967C74.5567 32.3894 74.958 31.9642 75.4488 31.6659C75.9518 31.3635 76.5293 31.2078 77.1162 31.2161C77.6045 31.2149 78.085 31.3394 78.5113 31.5776C78.7044 31.6856 78.887 31.8113 79.0568 31.9531C79.2079 32.0776 79.3404 32.223 79.4502 32.385C79.5413 32.5145 79.6051 32.6611 79.638 32.816L79.3563 32.9174V31.3579H80.6632V37.6107C80.672 38.0927 80.5924 38.5722 80.4285 39.0256C80.2822 39.4184 80.0504 39.7738 79.7497 40.0658C79.4421 40.3552 79.0762 40.5754 78.6766 40.7118C78.2145 40.8657 77.7299 40.941 77.2429 40.9343ZM77.2936 36.9385C77.6815 36.9457 78.0638 36.8449 78.3977 36.6475C78.7178 36.4561 78.9779 36.179 79.1488 35.8475C79.3254 35.4827 79.4167 35.0824 79.4157 34.6771C79.4147 34.2717 79.3215 33.8719 79.1432 33.5079C79.0073 33.259 78.8226 33.04 78.6 32.8642C78.3775 32.6884 78.1218 32.5593 77.8482 32.4847C77.5745 32.4101 77.2887 32.3915 77.0077 32.43C76.7267 32.4686 76.4564 32.5634 76.213 32.7089C75.8949 32.908 75.6356 33.1884 75.4619 33.521C75.2827 33.8816 75.1894 34.2788 75.1894 34.6815C75.1894 35.0841 75.2827 35.4813 75.4619 35.8419C75.6348 36.1735 75.8943 36.4519 76.213 36.6475C76.539 36.8435 76.9133 36.9443 77.2936 36.9385Z" fill="#592C82"/>
<path id="Vector_16" d="M81.987 38.0164V28.6278H83.293V32.7269L83.0648 32.879C83.1577 32.5688 83.328 32.2874 83.5596 32.0612C83.8119 31.8067 84.1084 31.6002 84.4346 31.4519C84.7601 31.2989 85.1152 31.2191 85.4749 31.2181C85.9819 31.2181 86.4047 31.3173 86.7433 31.5157C87.0906 31.7251 87.3582 32.0442 87.5038 32.4227C87.6728 32.8283 87.7572 33.3396 87.7572 33.9568V38.0164H86.4513V34.046C86.4616 33.7243 86.41 33.4036 86.2992 33.1015C86.2132 32.8693 86.0466 32.6757 85.8298 32.556C85.5859 32.4359 85.3137 32.3852 85.043 32.4095C84.805 32.4068 84.5686 32.4479 84.3454 32.5307C84.1416 32.6064 83.9542 32.7205 83.7934 32.8668C83.6392 33.0077 83.5145 33.1778 83.4263 33.3672C83.3369 33.5601 83.2913 33.7704 83.293 33.9831V38.0202H81.987V38.0164Z" fill="#592C82"/>
<path id="Vector_17" d="M95.1395 38.1441C94.6867 38.149 94.2356 38.0857 93.8016 37.9563C93.3978 37.8325 93.0197 37.6369 92.6853 37.3789C92.3395 37.1084 92.0379 36.7856 91.7915 36.4222L92.7304 35.3435C93.1447 35.9356 93.5419 36.3458 93.9218 36.5743C94.3345 36.8104 94.8041 36.9286 95.2794 36.916C95.578 36.9198 95.8746 36.8682 96.1544 36.764C96.3934 36.6787 96.6072 36.5347 96.776 36.3452C96.9244 36.1774 97.0059 35.9609 97.005 35.7368C97.0059 35.5897 96.9798 35.4436 96.928 35.3059C96.8762 35.1685 96.7966 35.0432 96.6943 34.9379C96.5742 34.8174 96.4372 34.7149 96.2877 34.6337C96.1038 34.5325 95.9104 34.4495 95.7103 34.3858C95.4614 34.3059 95.2073 34.2432 94.9499 34.198C94.54 34.12 94.1401 33.9966 93.7575 33.83C93.4437 33.6927 93.1574 33.4996 92.9125 33.2601C92.6892 33.0397 92.5162 32.7736 92.4055 32.4799C92.2908 32.1651 92.2348 31.832 92.2403 31.4969C92.2376 31.153 92.3181 30.8135 92.475 30.5074C92.6329 30.2007 92.8533 29.9305 93.1219 29.714C93.4109 29.4834 93.7395 29.3074 94.0917 29.1949C94.4805 29.0678 94.8873 29.0044 95.2963 29.0071C95.7216 29.0025 96.1451 29.0623 96.5525 29.1845C96.9201 29.2962 97.2641 29.4744 97.5674 29.7103C97.8652 29.9458 98.1148 30.2365 98.3025 30.5665L97.3393 31.5185C97.1842 31.2573 96.9919 31.0201 96.7684 30.8144C96.5649 30.6284 96.3283 30.4823 96.0709 30.3834C95.5299 30.1862 94.9365 30.1882 94.3969 30.3891C94.1698 30.4767 93.9704 30.6235 93.8195 30.8144C93.6794 30.9981 93.6056 31.2237 93.6101 31.4547C93.6054 31.6238 93.6374 31.792 93.704 31.9476C93.7752 32.1013 93.8817 32.2361 94.0148 32.341C94.1848 32.4722 94.3751 32.5749 94.5781 32.6452C94.8532 32.7451 95.1358 32.8236 95.423 32.8799C95.8487 32.9691 96.265 33.0986 96.6661 33.2667C96.9994 33.4057 97.3111 33.5916 97.5918 33.8187C97.8314 34.0131 98.028 34.2551 98.1692 34.5295C98.2998 34.7919 98.3673 35.0813 98.3664 35.3744C98.3793 35.8924 98.2428 36.4032 97.973 36.8456C97.7023 37.2669 97.3142 37.5998 96.8567 37.8033C96.3158 38.0401 95.7299 38.1564 95.1395 38.1441Z" fill="#592C82"/>
<path id="Vector_18" d="M102.306 38.144C101.722 38.1525 101.148 37.9938 100.651 37.6868C100.163 37.3814 99.7651 36.9525 99.4968 36.4437C99.2172 35.8982 99.0714 35.294 99.0714 34.681C99.0714 34.068 99.2172 33.4638 99.4968 32.9183C99.7654 32.4092 100.164 31.98 100.652 31.6743C101.148 31.3671 101.723 31.2088 102.307 31.218C102.867 31.2105 103.421 31.3343 103.924 31.5795C104.381 31.7937 104.766 32.1346 105.034 32.5615L104.313 33.4497C104.169 33.2462 103.993 33.0666 103.793 32.9174C103.588 32.76 103.361 32.632 103.121 32.5371C102.903 32.4482 102.671 32.4007 102.435 32.3972C102.053 32.3907 101.677 32.494 101.351 32.6949C101.034 32.8976 100.775 33.1798 100.6 33.5135C100.41 33.8729 100.313 34.2741 100.318 34.6806C100.312 35.0863 100.413 35.4865 100.61 35.841C100.796 36.1739 101.062 36.455 101.384 36.6587C101.702 36.8609 102.072 36.9665 102.449 36.9629C102.676 36.9628 102.901 36.9244 103.115 36.8493C103.341 36.7677 103.552 36.6521 103.743 36.5066C103.956 36.3451 104.148 36.1575 104.314 35.948L105.037 36.8362C104.735 37.2419 104.336 37.5649 103.877 37.775C103.388 38.0174 102.851 38.1437 102.306 38.144Z" fill="#592C82"/>
<path id="Vector_19" d="M105.756 38.0164V28.6278H107.063V32.7269L106.834 32.879C106.927 32.569 107.097 32.2877 107.329 32.0612C107.581 31.8069 107.878 31.6004 108.204 31.4519C108.529 31.2989 108.884 31.2191 109.244 31.2181C109.752 31.2181 110.175 31.3173 110.512 31.5157C110.86 31.7253 111.128 32.0443 111.274 32.4227C111.443 32.8283 111.527 33.3396 111.527 33.9568V38.0164H110.222V34.046C110.233 33.7243 110.181 33.4036 110.07 33.1015C109.984 32.8693 109.818 32.6757 109.601 32.556C109.357 32.4358 109.085 32.3851 108.815 32.4095C108.577 32.4069 108.341 32.448 108.117 32.5307C107.914 32.6064 107.726 32.7205 107.565 32.8668C107.411 33.0077 107.286 33.1778 107.197 33.3672C107.108 33.5602 107.063 33.7705 107.065 33.9831V38.0202H105.758L105.756 38.0164Z" fill="#592C82"/>
<path id="Vector_20" d="M115.789 38.1441C115.178 38.1543 114.575 37.9985 114.045 37.6934C113.539 37.3997 113.12 36.9748 112.834 36.4635C112.542 35.9143 112.389 35.3018 112.389 34.6797C112.389 34.0576 112.542 33.445 112.834 32.8958C113.12 32.3845 113.539 31.9594 114.045 31.665C114.577 31.3704 115.175 31.2158 115.782 31.2158C116.39 31.2158 116.988 31.3704 117.519 31.665C118.025 31.9601 118.444 32.385 118.731 32.8958C119.023 33.445 119.176 34.0576 119.176 34.6797C119.176 35.3018 119.023 35.9143 118.731 36.4635C118.444 36.974 118.025 37.3986 117.519 37.6934C116.994 37.9976 116.396 38.1533 115.789 38.1441ZM115.789 36.9517C116.165 36.9575 116.536 36.8538 116.854 36.6532C117.168 36.4539 117.423 36.1737 117.59 35.842C117.772 35.4828 117.859 35.0836 117.844 34.6816C117.86 34.2752 117.773 33.8715 117.59 33.508C117.423 33.1773 117.169 32.8987 116.854 32.7024C116.531 32.5103 116.161 32.4095 115.785 32.4106C115.408 32.4118 115.039 32.5149 114.717 32.709C114.402 32.9066 114.146 33.186 113.978 33.5174C113.811 33.8814 113.724 34.2773 113.724 34.6778C113.724 35.0784 113.811 35.4742 113.978 35.8382C114.147 36.1711 114.403 36.4516 114.719 36.6494C115.041 36.8495 115.413 36.9528 115.792 36.947L115.789 36.9517Z" fill="#592C82"/>
<path id="Vector_21" d="M123.085 38.144C122.474 38.1542 121.871 37.9985 121.341 37.6933C120.834 37.3993 120.416 36.9746 120.129 36.4634C119.837 35.9141 119.685 35.3016 119.685 34.6796C119.685 34.0576 119.837 33.4451 120.129 32.8958C120.416 32.3851 120.835 31.9604 121.341 31.6659C121.873 31.3712 122.47 31.2167 123.078 31.2167C123.686 31.2167 124.284 31.3712 124.815 31.6659C125.321 31.961 125.74 32.3859 126.027 32.8967C126.319 33.446 126.471 34.0585 126.471 34.6805C126.471 35.3025 126.319 35.915 126.027 36.4644C125.74 36.9749 125.321 37.3995 124.815 37.6943C124.289 37.9977 123.692 38.1531 123.085 38.144ZM123.085 36.9516C123.461 36.9574 123.832 36.8537 124.15 36.6531C124.464 36.4537 124.718 36.1735 124.885 35.8419C125.067 35.483 125.155 35.0836 125.14 34.6815C125.156 34.275 125.068 33.8712 124.885 33.5079C124.718 33.1774 124.464 32.8989 124.15 32.7024C123.827 32.5102 123.457 32.4094 123.081 32.4105C122.704 32.4117 122.335 32.5148 122.013 32.7089C121.696 32.9072 121.44 33.1879 121.271 33.521C121.104 33.8851 121.017 34.2809 121.017 34.6815C121.017 35.082 121.104 35.4779 121.271 35.8419C121.44 36.1748 121.696 36.4552 122.013 36.6531C122.334 36.8532 122.706 36.9565 123.085 36.9507V36.9516Z" fill="#592C82"/>
<path id="Vector_22" d="M127.409 38.0164V28.6278H128.718V38.0164H127.409Z" fill="#592C82"/>
<path id="Vector_23" d="M24.3268 50C10.9133 50 0 39.0867 0 25.6722V0H48.6546V25.6722C48.6546 39.0829 37.7422 50 24.3268 50ZM0.829015 0.829015V25.6722C0.829015 38.6285 11.3705 49.171 24.3268 49.171C37.2831 49.171 47.8247 38.6304 47.8247 25.6722V0.829015H0.829015Z" fill="#E53E51"/>
<path id="Vector_24" d="M3.73291 3.73291H44.9217V25.6722C44.9217 37.0465 35.7011 46.2671 24.3268 46.2671C12.9563 46.2661 3.73291 37.0465 3.73291 25.6722V3.73291Z" fill="#E53E51"/>
<path id="Vector_25" d="M21.4182 25.3389C19.5666 25.334 17.7601 24.7668 16.2379 23.7124C14.7158 22.658 13.5498 21.1662 12.8943 19.4344L9.56512 10.6203L10.4223 10.2964C12.6848 9.44325 15.1934 9.52346 17.3968 10.5194C19.6001 11.5154 21.3178 13.3455 22.1721 15.6076L25.5013 24.4197L24.6442 24.7436C23.6136 25.1353 22.5207 25.3369 21.4182 25.3389ZM11.9451 11.7442L14.6068 18.7856C15.2335 20.4453 16.4441 21.8194 18.0117 22.6502C19.5793 23.4809 21.3961 23.7111 23.1213 23.2978L20.4597 16.2563C19.8335 14.5962 18.623 13.2216 17.0553 12.3907C15.4876 11.5597 13.6705 11.3295 11.9451 11.7432V11.7442Z" fill="white"/>
<path id="Vector_26" d="M27.2326 25.3389C26.1303 25.3375 25.0373 25.1365 24.0067 24.7455L23.1495 24.4216L26.4815 15.6113C27.3364 13.3496 29.0544 11.5198 31.2579 10.5243C33.4613 9.52868 35.97 9.44877 38.2323 10.3021L39.0895 10.626L35.7594 19.44C35.1029 21.1713 33.9361 22.6623 32.4135 23.7157C30.8908 24.7691 29.0841 25.3351 27.2326 25.3389ZM25.537 23.3025C27.2622 23.7158 29.0788 23.4855 30.6463 22.6548C32.2137 21.824 33.4242 20.45 34.0506 18.7903L36.7132 11.7489C34.9877 11.3349 33.1704 11.565 31.6025 12.396C30.0346 13.2269 28.8239 14.6016 28.1978 16.262L25.537 23.3025Z" fill="white"/>
<path id="Vector_27" d="M21.4192 38.653C19.5676 38.6492 17.761 38.0829 16.2385 37.0291C14.7161 35.9754 13.5499 34.4838 12.8943 32.7522L9.56512 23.941L10.4223 23.6171C12.683 22.7621 15.1907 22.8401 17.3939 23.8341C19.597 24.828 21.3151 26.6563 22.1703 28.917L25.4995 37.7301L24.6423 38.054C23.6128 38.4463 22.5209 38.6492 21.4192 38.653ZM11.9451 25.0583L14.6068 32.0997C15.2328 33.7601 16.4431 35.1351 18.0108 35.9665C19.5784 36.798 21.3956 37.0288 23.1213 36.6156L20.4597 29.5742C19.833 27.9145 18.6224 26.5404 17.0548 25.7097C15.4872 24.8789 13.6704 24.6487 11.9451 25.062V25.0583Z" fill="white"/>
<path id="Vector_28" d="M27.2326 38.6529C26.1306 38.6516 25.0379 38.4506 24.0076 38.0595L23.1504 37.7356L26.4815 28.9225C27.3356 26.6606 29.0532 24.8306 31.2566 23.8351C33.4599 22.8396 35.9685 22.7601 38.2304 23.6142L39.0876 23.9381L35.7575 32.7512C35.1023 34.4831 33.9362 35.975 32.4137 37.029C30.8912 38.083 29.0843 38.6493 27.2326 38.6529ZM25.537 36.6156C27.2609 37.0282 29.0761 36.7982 30.6426 35.9686C32.2091 35.1391 33.4194 33.7669 34.0469 32.109L36.7095 25.0676C34.9848 24.6538 33.1684 24.8833 31.6008 25.7129C30.0332 26.5425 28.8219 27.9153 28.194 29.5741L25.537 36.6156Z" fill="white"/>
</g>
<defs>
<clipPath id="clip0_134_91">
<rect width="164.742" height="50" fill="white"/>
</clipPath>
</defs>
</svg>
